# xmcd CD database file
#
# Track frame offsets:
#	182
#	14570
#	28012
#	40745
#	61587
#	77987
#	88502
#	103180
#	116125
#	127120
#
# Disc length: 1865 seconds
#
# Revision: 2
# Processed by: cddbd v1.4PL0 Copyright (c) Steve Scherf et al.
# Submitted via: CDex 1.40Release
#
DISCID=8107470a
DTITLE=The Moffatts - It's A Wonderful World
DYEAR=1995
DGENRE=Country
TTITLE0=(What A) Wonderful World
TTITLE1=Grandma
TTITLE2=We're Off To The Rodeo
TTITLE3=All I Have Is A Dream
TTITLE4=Itty Bitty Smile
TTITLE5=Bird Dog
TTITLE6=I Think I'm Falling In Love
TTITLE7=Dogs Is Dogs
TTITLE8=Do Wah Diddy Diddy
TTITLE9=That's All Right
EXTD=YEAR: 1995 ID3G: 2
EXTT0=
EXTT1=
EXTT2=
EXTT3=
EXTT4=
EXTT5=
EXTT6=
EXTT7=
EXTT8=
EXTT9=
PLAYORDER=
